<svg width="73" height="74" viewBox="0 0 73 74" fill="none" xmlns="http://www.w3.org/2000/svg">
<path d="M37.4999 71.3334C31.8306 71.3385 26.2432 69.9809 21.2083 67.3751C20.9648 67.2492 20.7484 67.0766 20.5717 66.8672C20.3949 66.6577 20.261 66.4155 20.1779 66.1543C20.0947 65.8932 20.0637 65.6182 20.0868 65.3451C20.1099 65.0719 20.1866 64.806 20.3124 64.5626C20.4383 64.3191 20.6109 64.1027 20.8203 63.9259C21.0298 63.7491 21.272 63.6153 21.5331 63.5322C21.7943 63.449 22.0693 63.418 22.3424 63.4411C22.6155 63.4642 22.8814 63.5409 23.1249 63.6667C29.8687 67.0975 37.6261 67.9722 44.9645 66.1293C52.3029 64.2864 58.7265 59.8503 63.0491 53.6403C67.3717 47.4303 69.3013 39.866 68.4814 32.3443C67.6615 24.8226 64.1475 17.8516 58.5885 12.7187C53.0295 7.58592 45.8009 4.63799 38.2378 4.41939C30.6747 4.20079 23.2879 6.72628 17.4417 11.5295C11.5955 16.3326 7.6848 23.089 6.43182 30.5508C5.17884 38.0126 6.66823 45.6758 10.6249 52.1251C10.904 52.6023 10.9862 53.1695 10.8539 53.7062C10.7217 54.243 10.3854 54.7071 9.91659 55.0001C9.68169 55.1437 9.42065 55.2394 9.14855 55.2815C8.87645 55.3236 8.5987 55.3114 8.33135 55.2455C8.06401 55.1797 7.81237 55.0615 7.59099 54.8977C7.36961 54.734 7.18288 54.528 7.04159 54.2917C2.46911 46.9695 0.728379 38.2294 2.14657 29.7141C3.56476 21.1987 8.04422 13.4946 14.743 8.04954C21.4418 2.60452 29.8987 -0.206392 38.5242 0.145117C47.1496 0.496626 55.3497 3.98635 61.5833 9.95839C66.3972 14.4203 69.8765 20.1321 71.6328 26.4565C73.3892 32.7808 73.3535 39.4688 71.5298 45.7741C69.7061 52.0793 66.1661 57.7537 61.3048 62.164C56.4436 66.5742 50.4524 69.5469 43.9999 70.7501C41.8565 71.149 39.6801 71.3443 37.4999 71.3334Z" fill="#95E1D3"/>
<path d="M5.16666 73.5001C4.35896 73.4849 3.56747 73.2708 2.86216 72.877C2.15685 72.4831 1.55947 71.9215 1.12283 71.2418C0.686194 70.5621 0.423759 69.7853 0.35873 68.9801C0.293701 68.1749 0.428084 67.366 0.749995 66.6251L7.08333 52.3751C7.31908 51.8701 7.74381 51.4779 8.266 51.283C8.78819 51.0882 9.36603 51.1063 9.87499 51.3334C10.3771 51.5608 10.7686 51.9779 10.9638 52.4933C11.1591 53.0087 11.1421 53.5805 10.9167 54.0834L4.54166 68.3334C4.46052 68.4416 4.41666 68.5732 4.41666 68.7085C4.41666 68.8437 4.46052 68.9753 4.54166 69.0835C4.63268 69.1876 4.7522 69.2628 4.88548 69.2999C5.01876 69.3369 5.15996 69.3341 5.29166 69.2918L21.3333 63.5834C21.59 63.4847 21.8641 63.4388 22.139 63.4486C22.4138 63.4584 22.6839 63.5236 22.933 63.6403C23.182 63.7571 23.4049 63.9229 23.5883 64.128C23.7716 64.333 23.9117 64.573 24 64.8334C24.1876 65.3528 24.1614 65.9255 23.927 66.4255C23.6926 66.9256 23.2692 67.3121 22.75 67.5001L6.83333 73.2085C6.30018 73.4064 5.73535 73.5053 5.16666 73.5001Z" fill="#95E1D3"/>
</svg>
